<?xml version="1.0" encoding="utf-8"?><svg viewBox="0 0 80 80" xmlns="http://www.w3.org/2000/svg" xmlns:xlink="http://www.w3.org/1999/xlink"><style>:root>svg{display:none}:root>svg:target{display:block}</style><svg viewBox="0 0 23 16" id="add" xmlns="http://www.w3.org/2000/svg"><path d="M14.5 8c2.21 0 4-1.79 4-4s-1.79-4-4-4-4 1.79-4 4 1.79 4 4 4Zm-9-2V3h-2v3h-3v2h3v3h2V8h3V6h-3Zm9 4c-2.67 0-8 1.34-8 4v2h16v-2c0-2.66-5.33-4-8-4Z"/></svg><svg viewBox="0 0 8 8" id="arrow" xmlns="http://www.w3.org/2000/svg"><path d="m8 4-.705-.705L4.5 6.085V0h-1v6.085L.71 3.29 0 4l4 4 4-4Z"/></svg><svg viewBox="0 0 13 13" id="change" xmlns="http://www.w3.org/2000/svg"><path d="M0 10.5V13h2.5l7.373-7.373-2.5-2.5L0 10.5Zm11.807-6.807c.26-.26.26-.68 0-.94l-1.56-1.56a.664.664 0 0 0-.94 0l-1.22 1.22 2.5 2.5 1.22-1.22Z"/></svg><svg viewBox="0 0 16 16" id="defaultContact" xmlns="http://www.w3.org/2000/svg"><path fill-rule="evenodd" clip-rule="evenodd" d="M8 16A8 8 0 1 0 8 0a8 8 0 0 0 0 16ZM3 8c0-2.76 2.24-5 5-5s5 2.24 5 5-2.24 5-5 5-5-2.24-5-5Zm6.5-2c0-.83-.67-1.5-1.5-1.5S6.5 5.17 6.5 6 7.17 7.5 8 7.5 9.5 6.83 9.5 6ZM5 9.99a3.6 3.6 0 0 0 6 0c-.015-.995-2.005-1.54-3-1.54-1 0-2.985.545-3 1.54Z"/></svg><svg viewBox="0 0 16 16" id="delete" xmlns="http://www.w3.org/2000/svg"><g opacity=".7" clip-path="url(#ea)"><path d="M8 2C4.682 2 2 4.682 2 8s2.682 6 6 6 6-2.682 6-6-2.682-6-6-6Zm0 10.8A4.806 4.806 0 0 1 3.2 8c0-2.646 2.154-4.8 4.8-4.8s4.8 2.154 4.8 4.8-2.154 4.8-4.8 4.8ZM10.154 5 8 7.154 5.846 5 5 5.846 7.154 8 5 10.154l.846.846L8 8.846 10.154 11l.846-.846L8.846 8 11 5.846 10.154 5Z"/></g><defs><clipPath id="ea"><path fill="#fff" d="M0 0h16v16H0z"/></clipPath></defs></svg><svg viewBox="0 0 16 16" id="fb" xmlns="http://www.w3.org/2000/svg"><path d="M8 0C3.6 0 0 3.606 0 8.048c0 4.016 2.928 7.35 6.752 7.952v-5.623H4.72V8.048h2.032V6.273c0-2.016 1.192-3.124 3.024-3.124.872 0 1.784.152 1.784.152v1.984h-1.008c-.992 0-1.304.619-1.304 1.253v1.51h2.224l-.36 2.33H9.248V16a7.992 7.992 0 0 0 4.84-2.723A8.051 8.051 0 0 0 16 8.048C16 3.606 12.4 0 8 0Z"/></svg><svg viewBox="0 0 16 16" id="mail" xmlns="http://www.w3.org/2000/svg"><path opacity=".7" fill-rule="evenodd" clip-rule="evenodd" d="M8 16A8 8 0 1 0 8 0a8 8 0 0 0 0 16ZM4 5.75c0-.412.36-.75.8-.75h6.4c.44 0 .8.338.8.75v4.5c0 .412-.36.75-.8.75H4.8c-.44 0-.8-.338-.8-.75v-4.5Zm4.424 2.377 2.616-1.533c.1-.06.16-.162.16-.27 0-.252-.292-.401-.52-.27L8 7.625 5.32 6.054c-.228-.131-.52.018-.52.27 0 .109.06.21.16.27l2.616 1.533c.26.154.588.154.848 0Z"/></svg><svg fill="none" viewBox="0 0 16 16" id="phone" xmlns="http://www.w3.org/2000/svg"><g opacity=".7"><circle cx="8" cy="8" r="8" fill="#9873FF"/><path d="M11.56 9.502a5.085 5.085 0 0 1-1.569-.249.434.434 0 0 0-.449.107l-.698.876C7.587 9.636 6.41 8.502 5.782 7.2l.867-.738a.454.454 0 0 0 .107-.453 4.957 4.957 0 0 1-.25-1.569c0-.24-.2-.44-.44-.44H4.53C4.289 4 4 4.107 4 4.44 4 8.569 7.436 12 11.56 12c.316 0 .44-.28.44-.524V9.942c0-.24-.2-.44-.44-.44Z" fill="#fff"/></g></svg><svg viewBox="0 0 14 14" id="plus" xmlns="http://www.w3.org/2000/svg"><path d="M7 3.667c-.367 0-.667.3-.667.666v2h-2c-.366 0-.666.3-.666.667 0 .367.3.667.666.667h2v2c0 .366.3.666.667.666.367 0 .667-.3.667-.666v-2h2c.366 0 .666-.3.666-.667 0-.367-.3-.667-.666-.667h-2v-2c0-.366-.3-.666-.667-.666ZM7 .333A6.67 6.67 0 0 0 .333 7 6.669 6.669 0 0 0 7 13.667 6.67 6.67 0 0 0 13.667 7 6.67 6.67 0 0 0 7 .333Zm0 12A5.34 5.34 0 0 1 1.667 7 5.34 5.34 0 0 1 7 1.667 5.34 5.34 0 0 1 12.333 7 5.34 5.34 0 0 1 7 12.333Z"/></svg><svg fill="none" viewBox="0 0 80 80" id="preloader" xmlns="http://www.w3.org/2000/svg"><path d="M4 40c0 19.883 16.118 36 36 36s36-16.117 36-36C76 20.12 59.882 4 40 4c-4.649 0-9.092.881-13.172 2.486" stroke="#9873FF" stroke-width="8" stroke-miterlimit="10" stroke-linecap="round"/></svg><svg viewBox="0 0 16 16" id="vk" xmlns="http://www.w3.org/2000/svg"><path d="M8 0a8 8 0 1 0 0 16A8 8 0 0 0 8 0Zm4.058 8.865c.373.364.767.707 1.102 1.109.148.178.288.362.395.568.152.295.014.618-.25.636h-1.639c-.423.035-.76-.136-1.044-.426-.226-.23-.437-.477-.655-.715a1.533 1.533 0 0 0-.295-.263c-.224-.145-.418-.1-.546.133-.13.238-.16.5-.172.765-.018.387-.135.488-.523.506-.828.038-1.614-.087-2.345-.505-.645-.368-1.143-.888-1.578-1.477C3.66 8.048 3.013 6.788 2.43 5.493c-.13-.292-.035-.448.287-.455a45.59 45.59 0 0 1 1.605 0c.218.003.362.128.445.333.29.712.644 1.388 1.088 2.016.118.167.239.334.41.452.19.13.336.087.425-.125.057-.135.082-.279.094-.423a6.317 6.317 0 0 0-.026-1.482c-.045-.308-.219-.507-.526-.565-.156-.03-.134-.088-.057-.177.132-.155.255-.25.503-.25H8.53c.291.057.357.188.396.482l.002 2.058c-.003.113.057.45.261.525.164.054.272-.077.37-.18.444-.472.76-1.028 1.044-1.604.125-.254.233-.517.338-.78.077-.194.199-.29.418-.287l1.783.002c.053 0 .106 0 .158.01.3.051.383.18.29.474-.146.46-.43.844-.708 1.229-.298.411-.616.809-.91 1.222-.272.379-.25.569.086.897Z"/></svg></svg>